<?xml version="1.0" encoding="utf-8"?>
<svg xmlns="http://www.w3.org/2000/svg" width="530" height="530" class="segno"><path transform="scale(10)" class="qrline" stroke="#000" d="M4 4.5h7m3 0h2m3 0h2m4 0h3m5 0h2m2 0h1m2 0h1m1 0h7m-45 1h1m5 0h1m1 0h4m2 0h2m6 0h2m2 0h2m1 0h2m2 0h1m1 0h1m2 0h1m5 0h1m-45 1h1m1 0h3m1 0h1m1 0h1m1 0h4m4 0h1m2 0h1m2 0h1m1 0h1m2 0h1m3 0h1m1 0h1m2 0h1m1 0h3m1 0h1m-45 1h1m1 0h3m1 0h1m1 0h2m2 0h1m1 0h1m1 0h5m2 0h4m2 0h1m3 0h1m1 0h2m1 0h1m1 0h3m1 0h1m-45 1h1m1 0h3m1 0h1m1 0h1m5 0h1m1 0h2m2 0h5m2 0h2m1 0h3m1 0h3m1 0h1m1 0h3m1 0h1m-45 1h1m5 0h1m1 0h1m2 0h2m3 0h1m2 0h2m3 0h1m2 0h1m2 0h2m6 0h1m5 0h1m-45 1h7m1 0h1m1 0h1m1 0h1m1 0h1m1 0h1m1 0h1m1 0h1m1 0h1m1 0h1m1 0h1m1 0h1m1 0h1m1 0h1m1 0h1m1 0h1m1 0h7m-35 1h1m1 0h4m1 0h1m1 0h2m3 0h1m3 0h1m3 0h3m-33 1h1m2 0h5m2 0h1m3 0h10m2 0h2m1 0h2m4 0h1m1 0h5m-43 1h1m1 0h1m1 0h1m1 0h2m4 0h2m1 0h4m1 0h1m3 0h1m1 0h3m1 0h1m7 0h4m1 0h1m-45 1h1m1 0h1m3 0h2m2 0h3m1 0h1m3 0h3m1 0h1m1 0h2m1 0h3m2 0h2m1 0h2m7 0h1m-45 1h3m1 0h1m2 0h1m3 0h1m1 0h1m2 0h1m1 0h1m1 0h1m3 0h4m1 0h2m1 0h1m1 0h1m5 0h2m-41 1h3m2 0h5m1 0h2m1 0h3m3 0h1m3 0h2m1 0h1m1 0h1m1 0h4m1 0h5m2 0h1m-45 1h1m1 0h4m2 0h1m4 0h1m2 0h1m2 0h2m5 0h1m1 0h2m1 0h1m1 0h1m1 0h1m1 0h1m2 0h1m1 0h1m1 0h1m-43 1h3m1 0h1m1 0h7m1 0h2m1 0h1m4 0h3m1 0h2m1 0h1m4 0h1m4 0h2m1 0h1m-45 1h1m2 0h1m7 0h2m4 0h1m4 0h2m1 0h1m1 0h3m2 0h2m1 0h3m1 0h3m1 0h2m-44 1h3m1 0h6m1 0h1m2 0h1m2 0h1m1 0h3m2 0h2m5 0h1m1 0h2m4 0h1m-41 1h2m1 0h1m1 0h1m2 0h1m2 0h1m2 0h1m5 0h5m1 0h2m4 0h2m1 0h1m1 0h1m1 0h1m3 0h2m-42 1h5m2 0h2m1 0h2m2 0h2m1 0h3m1 0h1m1 0h5m4 0h3m2 0h5m-43 1h1m1 0h1m4 0h1m3 0h1m3 0h1m2 0h1m1 0h4m1 0h1m4 0h1m2 0h1m1 0h1m2 0h1m-40 1h1m1 0h6m1 0h1m1 0h2m1 0h1m2 0h7m1 0h2m1 0h2m1 0h2m1 0h6m2 0h2m-45 1h5m3 0h1m4 0h3m3 0h2m3 0h1m2 0h2m6 0h2m3 0h1m3 0h1m-41 1h1m1 0h1m1 0h1m3 0h1m1 0h1m1 0h2m2 0h1m1 0h1m1 0h1m2 0h1m1 0h3m3 0h2m1 0h1m1 0h1m1 0h1m1 0h1m-44 1h4m3 0h1m1 0h4m5 0h2m3 0h2m2 0h1m1 0h4m2 0h1m3 0h2m1 0h2m-42 1h6m2 0h2m7 0h5m1 0h2m1 0h4m2 0h6m-38 1h2m3 0h1m1 0h3m1 0h1m1 0h1m4 0h1m2 0h1m2 0h3m1 0h1m1 0h1m1 0h1m3 0h1m2 0h1m1 0h1m-45 1h1m1 0h1m2 0h3m2 0h2m1 0h1m1 0h1m2 0h1m2 0h1m1 0h1m3 0h1m1 0h2m2 0h1m2 0h1m1 0h2m2 0h1m1 0h1m-45 1h1m2 0h2m2 0h2m2 0h3m5 0h2m1 0h1m4 0h1m4 0h5m1 0h4m2 0h1m-44 1h1m2 0h7m1 0h1m2 0h3m1 0h1m2 0h4m1 0h3m2 0h1m2 0h2m4 0h1m1 0h2m-45 1h1m1 0h2m1 0h1m1 0h4m1 0h1m1 0h2m1 0h4m2 0h2m3 0h1m2 0h1m1 0h1m3 0h1m1 0h1m1 0h4m-41 1h1m1 0h1m4 0h1m1 0h1m2 0h2m1 0h1m6 0h2m7 0h1m1 0h4m3 0h1m-38 1h3m1 0h1m3 0h1m2 0h1m1 0h1m1 0h1m2 0h3m1 0h2m1 0h2m1 0h1m1 0h3m1 0h1m1 0h1m-44 1h2m1 0h1m2 0h3m1 0h1m1 0h2m2 0h2m2 0h1m1 0h1m2 0h1m3 0h2m1 0h1m1 0h3m2 0h1m1 0h1m1 0h1m-43 1h2m1 0h1m2 0h5m2 0h2m1 0h2m3 0h4m1 0h4m2 0h1m1 0h1m1 0h2m2 0h1m2 0h1m-41 1h1m1 0h2m3 0h2m3 0h2m4 0h3m2 0h5m1 0h1m1 0h2m1 0h1m2 0h4m-44 1h4m4 0h6m1 0h3m3 0h3m1 0h1m2 0h2m1 0h1m1 0h2m1 0h2m1 0h2m1 0h2m-45 1h1m2 0h2m1 0h2m1 0h1m2 0h2m1 0h1m1 0h2m1 0h6m3 0h1m1 0h10m-33 1h1m2 0h2m1 0h1m1 0h1m1 0h3m3 0h2m1 0h2m1 0h1m1 0h2m1 0h2m3 0h2m1 0h2m-45 1h7m1 0h1m1 0h2m2 0h1m1 0h2m2 0h1m1 0h1m1 0h3m1 0h2m1 0h3m1 0h2m1 0h1m1 0h2m1 0h2m-45 1h1m5 0h1m1 0h2m3 0h1m2 0h2m1 0h2m3 0h1m4 0h2m1 0h2m1 0h2m3 0h1m2 0h1m-44 1h1m1 0h3m1 0h1m2 0h4m1 0h1m1 0h1m3 0h5m2 0h4m1 0h2m1 0h7m1 0h2m-45 1h1m1 0h3m1 0h1m2 0h1m2 0h1m2 0h1m2 0h1m1 0h3m2 0h2m1 0h1m1 0h1m4 0h2m3 0h1m2 0h2m-45 1h1m1 0h3m1 0h1m1 0h1m9 0h1m1 0h1m1 0h1m4 0h1m1 0h2m1 0h2m2 0h1m3 0h2m1 0h2m-45 1h1m5 0h1m2 0h3m6 0h2m1 0h1m1 0h1m2 0h1m1 0h1m2 0h3m1 0h1m3 0h3m-42 1h7m3 0h3m2 0h2m2 0h1m3 0h2m3 0h2m1 0h2m1 0h2m5 0h1m2 0h1"/></svg>
